<svg id="Layer_1" data-name="Layer 1" xmlns="http://www.w3.org/2000/svg" viewBox="0 0 315.56 418.07"><defs><style>.cls-1{fill:#0a4463;}.cls-2{fill:#4d4d4d;}.cls-3{fill:#072d42;}.cls-4{fill:#0d5a84;}.cls-5{fill:none;stroke:#072d42;stroke-miterlimit:10;stroke-width:3px;}</style></defs><title>Rawand Farhad</title><path class="cls-1" d="M358.52,117.75C343.21,75.28,312.57,49.5,268.2,40.39c-5-1-10.16-1.61-15.24-2.39H241.09c-5.08.79-10.21,1.36-15.24,2.39-44.38,9.1-75,34.89-90.32,77.36-11.66,32.35-9.15,64.55,6.67,95.37Q193.28,312.59,244.46,412c.67,1.3,1.42,2.55,2.49,4.48l.07-.14.07.14c1.08-1.93,1.83-3.19,2.49-4.48q51.14-99.44,102.26-198.89C367.67,182.3,370.18,150.1,358.52,117.75ZM247,222.14c-35.47.12-64.91-28.94-65.54-63.9-.67-36.83,29-66.76,64.35-67h2.38c35.4.25,65,30.18,64.35,67C311.94,193.2,282.49,222.25,247,222.14Z" transform="translate(-91.44 -34.67)"/><path class="cls-2" d="M229.95,191.37c-9.36,3.35-18.5,7.05-26.12,12.87a63.87,63.87,0,0,0,86.39.17A85.52,85.52,0,0,0,264,191.3c-5.93-1.87-7.39-6.39-3.74-11.59a70,70,0,0,0,5.79-9.76c1.47-3,2.5-6,4.9-8.83,1.94-2.25,1.64-6.71,1.72-10.21.07-2.9-1.26-5.85-1.11-8.74.92-17.61-6.75-26.88-23.29-27.8-12.91-.71-22.68,5.5-24.69,16.2-.83,4.39-.53,9-.88,13.48a19.28,19.28,0,0,1-1.06,5.75,11.68,11.68,0,0,0,2.9,13.16,10.18,10.18,0,0,1,2.14,3c2.35,4.49,4.26,9.26,7,13.48C237.35,185,236,189.2,229.95,191.37Z" transform="translate(-91.44 -34.67)"/><g id="OT0eRP.tif"><path class="cls-3" d="M204.65,375.08c-8.08.72-16.23,1.32-24.35,2.2-14.13,1.53-28.23,3.42-41.71,8.21a52.64,52.64,0,0,0-12.1,6c-7.08,4.86-7.61,12.08-.79,17.3a74.67,74.67,0,0,0,17.53,9.71c14.74,5.89,30.34,8.55,46,10.64a446.33,446.33,0,0,0,70.92,3.69c27.41-.72,54.7-2.84,81.3-10a168.87,168.87,0,0,0,23.34-8.55,32.16,32.16,0,0,0,9.59-7c4.57-4.62,4.5-10.48-.69-14.27a59.31,59.31,0,0,0-15.53-8c-14.82-5.08-30.35-6.75-45.86-8.29-5.13-.51-10.27-.88-15.5-1.33,2.9-3.1,5.67-6.15,8.58-9.08.39-.39,1.41-.32,2.11-.24,27.12,3.31,54,7.61,78.9,19.72a61.25,61.25,0,0,1,14.71,10.16c8,7.42,7.76,16,.12,23.78-7.36,7.46-16.72,11.58-26.31,15.19-19.22,7.22-39.27,11-59.52,13.73a508.83,508.83,0,0,1-87,3.73c-30.25-1.14-60.25-4.41-89.54-12.52-11.79-3.26-23.41-7.13-33.67-14a45.85,45.85,0,0,1-10.25-9.22c-4.68-5.84-4.61-12.57.39-18.2a53.85,53.85,0,0,1,12.3-10.19c12.93-7.8,27.3-12.16,42-15.14s29.44-5,44.18-7.37A3.16,3.16,0,0,1,196,366C199,368.95,201.79,372,204.65,375.08Z" transform="translate(-91.44 -34.67)"/></g><path class="cls-4" d="M359.61,115c-15.39-42.77-46.2-68.73-90.82-77.9-5.06-1-10.21-1.62-15.32-2.41h-6V88.28h1.2c35.59.25,65.38,30.39,64.71,67.47-.64,35.2-30.24,64.46-65.9,64.35V415.66l.07.14c1.08-1.94,1.84-3.21,2.51-4.51Q301.5,311.15,352.9,211C368.81,180,371.33,147.55,359.61,115Z" transform="translate(-91.44 -34.67)"/><path class="cls-1" d="M135.39,115c15.39-42.77,46.2-68.73,90.82-77.9,5.06-1,10.21-1.62,15.32-2.41h6V88.28h-1.2c-35.59.25-65.38,30.39-64.71,67.47.64,35.2,30.24,64.46,65.9,64.35V415.66l-.07.14c-1.08-1.94-1.84-3.21-2.51-4.51Q193.5,311.15,142.1,211C126.19,180,123.66,147.55,135.39,115Z" transform="translate(-91.44 -34.67)"/><circle class="cls-5" cx="156.05" cy="119.89" r="67.87"/></svg>